# xmcd
#
# Track frame offsets:
#	150
#	21785
#	43812
#	75207
#	91302
#	106310
#	130097
#
# Disc length: 1855 seconds
#
# Revision: 0
# Processed by: cddbd v1.5.1PL0 Copyright (c) Steve Scherf et al.
# Submitted via: dBpowerAMP V4.0
#
DISCID=48073d07
DTITLE=Patti and the Hitmen - Smokin' Blues
DYEAR=1900
DGENRE=Blues
TTITLE0=Rock Bottom
TTITLE1=Lover's Lane
TTITLE2=Black and Blue
TTITLE3=Go to Hell
TTITLE4=Tell Mama
TTITLE5=Breaking Up Somebody's Home
TTITLE6=Barnyard Boogie
EXTD=
EXTT0=
EXTT1=
EXTT2=
EXTT3=
EXTT4=
EXTT5=
EXTT6=
PLAYORDER=
